<svg viewBox="0 0 20 20" fill="none" xmlns="http://www.w3.org/2000/svg">
<path d="M9.16675 3.33331H3.33341C2.89139 3.33331 2.46746 3.50891 2.1549 3.82147C1.84234 4.13403 1.66675 4.55795 1.66675 4.99998V16.6666C1.66675 17.1087 1.84234 17.5326 2.1549 17.8452C2.46746 18.1577 2.89139 18.3333 3.33341 18.3333H15.0001C15.4421 18.3333 15.866 18.1577 16.1786 17.8452C16.4912 17.5326 16.6667 17.1087 16.6667 16.6666V10.8333"  stroke-linecap="round" stroke-linejoin="round"/>
<path d="M15.4167 3.08332C15.7483 2.7518 16.1979 2.56555 16.6667 2.56555C17.1356 2.56555 17.5852 2.7518 17.9167 3.08332C18.2483 3.41484 18.4345 3.86448 18.4345 4.33332C18.4345 4.80216 18.2483 5.2518 17.9167 5.58332L10.0001 13.5L6.66675 14.3333L7.50008 11L15.4167 3.08332Z"  stroke-linecap="round" stroke-linejoin="round"/>
</svg>
